<svg aria-hidden="true" style="position: absolute; width: 0; height: 0; overflow: hidden;" version="1.1" xmlns="http://www.w3.org/2000/svg" xmlns:xlink="http://www.w3.org/1999/xlink">
<defs>
<symbol id="icon-instagram" viewBox="0 0 32 32">
<path fill="currentColor" d="M27.929 11.073c-0.013-1.010-0.203-2.010-0.559-2.955-0.309-0.797-0.781-1.521-1.385-2.126s-1.328-1.076-2.126-1.385c-0.933-0.35-1.918-0.54-2.915-0.56-1.283-0.057-1.689-0.073-4.945-0.073s-3.673 0-4.947 0.073c-0.996 0.021-1.981 0.21-2.913 0.56-0.797 0.309-1.521 0.78-2.126 1.385s-1.076 1.329-1.385 2.126c-0.351 0.932-0.54 1.917-0.559 2.913-0.057 1.284-0.075 1.691-0.075 4.947s0 3.672 0.075 4.947c0.020 0.997 0.208 1.981 0.559 2.916 0.309 0.797 0.781 1.521 1.386 2.125s1.329 1.076 2.126 1.384c0.93 0.364 1.915 0.567 2.913 0.6 1.284 0.057 1.691 0.075 4.947 0.075s3.673 0 4.947-0.075c0.996-0.020 1.982-0.209 2.915-0.559 0.797-0.309 1.521-0.781 2.125-1.386s1.076-1.328 1.385-2.125c0.351-0.933 0.539-1.917 0.559-2.916 0.057-1.283 0.075-1.689 0.075-4.947-0.003-3.256-0.003-3.669-0.077-4.945zM15.992 22.136c-3.405 0-6.164-2.759-6.164-6.164s2.759-6.164 6.164-6.164c1.635 0 3.203 0.649 4.359 1.805s1.805 2.724 1.805 4.359-0.649 3.203-1.805 4.359c-1.156 1.156-2.724 1.805-4.359 1.805zM22.401 11.017c-0.796 0-1.437-0.643-1.437-1.437 0-0.189 0.037-0.376 0.109-0.55s0.178-0.333 0.311-0.466 0.292-0.239 0.466-0.311c0.174-0.072 0.361-0.109 0.55-0.109s0.375 0.037 0.55 0.109c0.174 0.072 0.333 0.178 0.466 0.311s0.239 0.292 0.311 0.466c0.072 0.174 0.109 0.361 0.109 0.55 0 0.795-0.643 1.437-1.436 1.437z"></path>
<path fill="currentColor" d="M15.992 19.976c2.211 0 4.004-1.793 4.004-4.004s-1.793-4.004-4.004-4.004-4.004 1.793-4.004 4.004c0 2.211 1.793 4.004 4.004 4.004z"></path>
</symbol>
<symbol id="icon-phone" viewBox="0 0 32 32">
<path fill="currentColor" d="M25.64 20.347l-3.387-0.387c-0.398-0.047-0.802-0.003-1.181 0.129s-0.723 0.347-1.006 0.631l-2.453 2.453c-3.785-1.925-6.862-5.002-8.787-8.787l2.467-2.467c0.573-0.573 0.853-1.373 0.76-2.187l-0.387-3.36c-0.076-0.65-0.388-1.25-0.877-1.686s-1.121-0.675-1.776-0.674h-2.307c-1.507 0-2.76 1.253-2.667 2.76 0.707 11.387 9.813 20.48 21.187 21.187 1.507 0.093 2.76-1.16 2.76-2.667v-2.307c0.013-1.347-1-2.48-2.347-2.64v0z"></path>
</symbol>
<symbol id="icon-location" viewBox="0 0 32 32">
<path fill="currentColor" d="M16 2.667c-5.16 0-9.333 4.173-9.333 9.333 0 5.56 5.893 13.227 8.32 16.147 0.533 0.64 1.507 0.64 2.040 0 2.413-2.92 8.307-10.587 8.307-16.147 0-5.16-4.173-9.333-9.333-9.333zM16 15.333c-0.884 0-1.732-0.351-2.357-0.976s-0.976-1.473-0.976-2.357 0.351-1.732 0.976-2.357c0.625-0.625 1.473-0.976 2.357-0.976s1.732 0.351 2.357 0.976c0.625 0.625 0.976 1.473 0.976 2.357s-0.351 1.732-0.976 2.357c-0.625 0.625-1.473 0.976-2.357 0.976v0z"></path>
</symbol>
<symbol id="icon-mail" viewBox="0 0 32 32">
<path fill="currentColor" d="M26.667 5.333h-21.333c-1.467 0-2.667 1.2-2.667 2.667v16c0 1.467 1.2 2.667 2.667 2.667h21.333c1.467 0 2.667-1.2 2.667-2.667v-16c0-1.467-1.2-2.667-2.667-2.667zM26.133 11l-8.72 5.453c-0.867 0.547-1.96 0.547-2.827 0l-8.72-5.453c-0.134-0.075-0.251-0.176-0.344-0.298s-0.161-0.261-0.199-0.409c-0.038-0.149-0.045-0.303-0.022-0.455s0.078-0.297 0.159-0.427c0.081-0.13 0.188-0.242 0.314-0.33s0.268-0.149 0.418-0.18c0.15-0.031 0.305-0.031 0.455-0s0.293 0.091 0.419 0.179l8.933 5.587 8.933-5.587c0.126-0.087 0.269-0.148 0.419-0.179s0.305-0.030 0.455 0 0.293 0.092 0.418 0.18c0.126 0.088 0.233 0.2 0.314 0.33s0.135 0.275 0.159 0.427c0.024 0.152 0.016 0.306-0.022 0.455s-0.106 0.288-0.199 0.409c-0.093 0.122-0.21 0.223-0.344 0.298v0z"></path>
</symbol>
<symbol id="icon-star" viewBox="0 0 32 32">
<path fill="currentColor" d="M28.378 11.034l-7.934-1.153-3.547-7.191c-0.097-0.197-0.256-0.356-0.453-0.453-0.494-0.244-1.094-0.041-1.341 0.453l-3.547 7.191-7.934 1.153c-0.219 0.031-0.419 0.134-0.572 0.291-0.185 0.19-0.287 0.446-0.284 0.712s0.112 0.519 0.302 0.704l5.741 5.597-1.356 7.903c-0.032 0.184-0.011 0.373 0.059 0.546s0.187 0.323 0.338 0.432 0.33 0.175 0.516 0.188c0.186 0.013 0.372-0.026 0.537-0.113l7.097-3.731 7.097 3.731c0.194 0.103 0.419 0.138 0.634 0.1 0.544-0.094 0.909-0.609 0.816-1.153l-1.356-7.903 5.741-5.597c0.156-0.153 0.259-0.353 0.291-0.572 0.084-0.547-0.297-1.053-0.844-1.134z"></path>
</symbol>
<symbol id="icon-twitter" viewBox="0 0 32 32">
<path fill="currentColor" d="M29 7.947c-0.956 0.412-1.997 0.709-3.069 0.825 1.113-0.661 1.946-1.706 2.344-2.938-1.044 0.621-2.188 1.057-3.381 1.287-0.499-0.533-1.102-0.958-1.771-1.247s-1.392-0.439-2.122-0.437c-2.953 0-5.328 2.394-5.328 5.331 0 0.412 0.050 0.825 0.131 1.222-4.422-0.231-8.366-2.344-10.988-5.578-0.478 0.816-0.728 1.745-0.725 2.691 0 1.85 0.941 3.481 2.375 4.441-0.845-0.033-1.671-0.266-2.409-0.678v0.066c0 2.591 1.831 4.738 4.272 5.231-0.458 0.119-0.93 0.18-1.403 0.181-0.347 0-0.675-0.034-1.006-0.081 0.675 2.113 2.641 3.647 4.981 3.697-1.831 1.434-4.125 2.278-6.616 2.278-0.447 0-0.859-0.016-1.288-0.066 2.362 1.516 5.166 2.391 8.184 2.391 9.8 0 15.162-8.119 15.162-15.166 0-0.231 0-0.463-0.016-0.694 1.037-0.759 1.947-1.7 2.672-2.756z"></path>
</symbol>
<symbol id="icon-facebook" viewBox="0 0 32 32">
<path fill="currentColor" d="M8.382 4c-2.428 0-4.382 1.955-4.382 4.382v15.235c0 2.428 1.955 4.382 4.382 4.382h8.257v-9.383h-2.481v-3.378h2.481v-2.886c0-2.267 1.466-4.349 4.843-4.349 1.367 0 2.378 0.131 2.378 0.131l-0.080 3.155c0 0-1.031-0.010-2.156-0.010-1.218 0-1.413 0.561-1.413 1.492v2.467h3.666l-0.16 3.378h-3.506v9.383h3.406c2.428 0 4.382-1.955 4.382-4.382v-15.235c0-2.428-1.955-4.382-4.382-4.382l-15.235-0z"></path>
</symbol>
<symbol id="icon-x" viewBox="0 0 43 32">
<path fill="currentColor" d="M27.867 0h5.432l-11.926 13.579 13.934 18.421h-10.934l-8.561-11.194-9.801 11.194h-5.432l12.635-14.524-13.343-17.476h11.206l7.734 10.226zM25.966 28.812h3.011l-19.483-25.742h-3.235z"></path>
</symbol>
</defs>
</svg>
